<svg xmlns="http://www.w3.org/2000/svg" id="Layer_2" data-name="Layer 2" viewBox="0 0 128 128"><title>TAMBOURINE</title><path d="M109.756,62.109h0L65.75,38.526V35.263a7.788,7.788,0,1,0-9.537-7.589v.554a1.75,1.75,0,1,0,3.5,0v-.554A4.287,4.287,0,1,1,64,31.961a1.75,1.75,0,0,0-1.75,1.75v4.815L18.244,62.109a5.731,5.731,0,0,0,2.707,10.783h6.4v33.471a1.75,1.75,0,0,0,1.75,1.75h56.75a1.75,1.75,0,0,0,1.75-1.75v-6.093h15.909a1.75,1.75,0,0,0,1.75-1.75V72.893h1.788a5.731,5.731,0,0,0,2.707-10.783ZM84.1,98.521v6.093H73.814V90.678a1.75,1.75,0,0,0-3.5,0v13.936H47.25v-3.67a1.75,1.75,0,1,0-3.5,0v3.67h-12.9V69.9A3.147,3.147,0,0,1,34,66.758H79.945A4.163,4.163,0,0,1,84.1,70.916Zm17.659-1.75H96.583V93.1a1.75,1.75,0,0,0-3.5,0v3.67H87.6V69.9a6.6,6.6,0,0,0-.793-3.144H97.6a4.163,4.163,0,0,1,4.158,4.158ZM109.213,67.7a2.153,2.153,0,0,1-2.164,1.688h-1.941a7.67,7.67,0,0,0-7.5-6.135H34A6.651,6.651,0,0,0,27.353,69.9c0-.172.013-.34.026-.509H20.951a2.231,2.231,0,0,1-1.054-4.2L64,41.56l44.1,23.634A2.154,2.154,0,0,1,109.213,67.7Z" fill="#041f83"/><path d="M98.189,35.315h2.675a1.75,1.75,0,0,0,0-3.5H98.189a1.75,1.75,0,1,0,0,3.5Z" fill="#041f83"/><path d="M94.736,35.074a1.75,1.75,0,0,0-1.75,1.75V39.5a1.75,1.75,0,0,0,3.5,0V36.824A1.75,1.75,0,0,0,94.736,35.074Z" fill="#041f83"/><path d="M88.8,35.121h2.675a1.75,1.75,0,0,0,0-3.5H88.8a1.75,1.75,0,0,0,0,3.5Z" fill="#041f83"/><path d="M94.931,31.862a1.75,1.75,0,0,0,1.75-1.75V27.438a1.75,1.75,0,0,0-3.5,0v2.675A1.75,1.75,0,0,0,94.931,31.862Z" fill="#041f83"/></svg>