<svg xmlns="http://www.w3.org/2000/svg" id="Layer_2" data-name="Layer 2" viewBox="0 0 128 128"><title>FLUTE</title><path d="M80.526,60.457a1.75,1.75,0,0,0-1.557-1.739C64.049,57.061,55.991,49,54.333,34.082a1.75,1.75,0,0,0-3.479,0C49.2,49,41.139,57.061,26.219,58.718a1.75,1.75,0,0,0,0,3.479c14.92,1.657,22.978,9.716,24.636,24.636a1.75,1.75,0,0,0,3.479,0c1.658-14.92,9.716-22.979,24.636-24.636A1.75,1.75,0,0,0,80.526,60.457ZM52.594,78.148A26.275,26.275,0,0,0,34.9,60.457,26.275,26.275,0,0,0,52.594,42.766,26.276,26.276,0,0,0,70.285,60.457,26.275,26.275,0,0,0,52.594,78.148Z" fill="#041f83"/><path d="M76.093,36.015c4.644.517,7.046,2.919,7.563,7.562a1.75,1.75,0,0,0,3.479,0c.516-4.643,2.918-7.045,7.562-7.562a1.75,1.75,0,0,0,0-3.479c-4.644-.517-7.046-2.919-7.562-7.562a1.75,1.75,0,0,0-3.479,0c-.516,4.644-2.919,7.046-7.562,7.562a1.75,1.75,0,0,0,0,3.479Zm9.3-5.156a9.9,9.9,0,0,0,3.417,3.417,9.9,9.9,0,0,0-3.417,3.416,9.915,9.915,0,0,0-3.417-3.416A9.909,9.909,0,0,0,85.395,30.858Z" fill="#041f83"/><path d="M101.781,84.9c-8.871-.985-13.662-5.776-14.647-14.647a1.75,1.75,0,0,0-3.479,0c-.986,8.871-5.777,13.662-14.648,14.647a1.75,1.75,0,0,0,0,3.479c8.871.986,13.662,5.777,14.648,14.648a1.75,1.75,0,0,0,3.479,0c.985-8.871,5.776-13.662,14.647-14.648a1.75,1.75,0,0,0,0-3.479ZM85.395,95.655a16.454,16.454,0,0,0-9.017-9.017,16.449,16.449,0,0,0,9.017-9.016,16.447,16.447,0,0,0,9.016,9.016A16.452,16.452,0,0,0,85.395,95.655Z" fill="#041f83"/></svg>